<svg xmlns="http://www.w3.org/2000/svg" width="42.161" height="25.576" viewBox="0 0 42.161 25.576">
  <g id="air-conditioner" transform="translate(0 0)">
    <path id="Path_69" data-name="Path 69" d="M39.2,100.486H6.724a.619.619,0,1,0,0,1.238H39.2a1.727,1.727,0,0,1,1.726,1.726v13.178a1.727,1.727,0,0,1-1.726,1.726H37.716V114.32a.619.619,0,0,0-.619-.619H5.064a.619.619,0,0,0-.619.619v4.033H2.963a1.727,1.727,0,0,1-1.726-1.726V103.449a1.727,1.727,0,0,1,1.726-1.726H7.549a.619.619,0,1,0,0-1.238H2.963A2.967,2.967,0,0,0,0,103.449v13.178a2.967,2.967,0,0,0,2.963,2.963H9.406a.619.619,0,1,0,0-1.238H5.683v-1.088h24.6a.619.619,0,1,0,0-1.238H5.683v-1.088H36.478v1.088H32.755a.619.619,0,1,0,0,1.238h3.723v1.088h-24.6a.619.619,0,1,0,0,1.238H39.2a2.967,2.967,0,0,0,2.963-2.963V103.449A2.967,2.967,0,0,0,39.2,100.486Z" transform="translate(0 -100.486)" fill="#6a91bb"/>
    <path id="Path_72" data-name="Path 72" d="M112,352.064a.619.619,0,0,0-.619.619,4.087,4.087,0,0,1-1.737,3.073.619.619,0,1,0,.717,1.009,5.323,5.323,0,0,0,2.258-4.082A.619.619,0,0,0,112,352.064Z" transform="translate(-100.353 -331.303)" fill="#6a91bb"/>
    <path id="Path_73" data-name="Path 73" d="M187.9,352.064a.619.619,0,0,0-.619.619v3.578a.619.619,0,1,0,1.238,0v-3.578A.619.619,0,0,0,187.9,352.064Z" transform="translate(-171.828 -331.303)" fill="#6a91bb"/>
    <path id="Path_74" data-name="Path 74" d="M250.683,352.064a.619.619,0,0,0-.619.619v3.578a.619.619,0,1,0,1.238,0v-3.578A.619.619,0,0,0,250.683,352.064Z" transform="translate(-229.428 -331.303)" fill="#6a91bb"/>
    <path id="Path_75" data-name="Path 75" d="M365.3,355.756a4.073,4.073,0,0,1-1.737-3.076.619.619,0,0,0-1.238,0,5.323,5.323,0,0,0,2.257,4.082.619.619,0,1,0,.717-1.009Z" transform="translate(-332.428 -331.303)" fill="#6a91bb"/>
    <path id="Path_76" data-name="Path 76" d="M309.245,352.064a.619.619,0,0,0-.619.619v3.578a.619.619,0,1,0,1.238,0v-3.578A.619.619,0,0,0,309.245,352.064Z" transform="translate(-283.158 -331.303)" fill="#6a91bb"/>
  </g>
</svg>
