<svg width="45.138" height="48.297" viewBox="0 0 45.138 48.297">
  <path id="Path_47" data-name="Path 47" d="M52.543,5.559l1.292-2.171A1.077,1.077,0,0,1,55.713,4.44L54.421,6.612a1.051,1.051,0,0,1-.939.527,1.68,1.68,0,0,1-.527-.119A1.053,1.053,0,0,1,52.543,5.559ZM33.549,6.617a1.051,1.051,0,0,0,.939.527,1.68,1.68,0,0,0,.527-.119,1.067,1.067,0,0,0,.413-1.466L34.135,3.387a1.077,1.077,0,0,0-1.878,1.053ZM43.982,4.625a1.047,1.047,0,0,0,1.053-1.053V1.053a1.053,1.053,0,0,0-2.106,0V3.572A.982.982,0,0,0,43.982,4.625ZM24.988,21.448H22.469a1.053,1.053,0,1,0,0,2.106h2.519a1.053,1.053,0,1,0,0-2.106Zm40.513,0H62.982a1.053,1.053,0,1,0,0,2.106H65.5a1.053,1.053,0,0,0,0-2.106Zm-1.938-10.2a1.067,1.067,0,0,0-1.466-.413l-2.171,1.292a1.067,1.067,0,0,0-.413,1.466,1.051,1.051,0,0,0,.939.527A1.679,1.679,0,0,0,60.979,14l2.171-1.292A1.055,1.055,0,0,0,63.563,11.248ZM57.819,22.387A14.125,14.125,0,0,1,56,29.249a1.024,1.024,0,0,1-.233.413l-.119.174a12.567,12.567,0,0,1-1.525,1.992c-2.052,2.872-3.105,5.336-3.051,6.916v.06c0,.119.06.293.06.467v5.043A3.991,3.991,0,0,1,47.147,48.3h-6.5a3.991,3.991,0,0,1-3.984-3.984v-5.57c.06-1.525-1-3.93-2.931-6.742a11.615,11.615,0,0,1-1.759-2.345c-.06-.119-.119-.174-.174-.293a13.774,13.774,0,0,1-1.878-6.916,13.951,13.951,0,0,1,27.9-.06ZM48.965,39.856H38.825v1.992h10.14V39.856Zm0,4.576v-.413H38.825v.413a1.837,1.837,0,0,0,1.819,1.639h6.509A1.832,1.832,0,0,0,48.965,44.432Zm6.682-22.045a11.785,11.785,0,1,0-23.57,0,11.937,11.937,0,0,0,1.639,5.982h0v.06A14.207,14.207,0,0,0,35.3,30.541l.119.119A17.825,17.825,0,0,1,38.765,37.7h10.26c.353-2.4,1.992-5.157,3.458-7.209,0-.06.06-.06.119-.119a7.976,7.976,0,0,0,1.346-1.819c0-.06.06-.06.06-.119s.06-.06.06-.119A11.505,11.505,0,0,0,55.648,22.387ZM28.039,12.127l-2.171-1.292a1.077,1.077,0,1,0-1.053,1.878l2.171,1.292a.855.855,0,0,0,.527.119,1.057,1.057,0,0,0,.939-.527A1.076,1.076,0,0,0,28.039,12.127Z" transform="translate(-21.416 0)" fill="#fff"/>
</svg>
